<svg version="1.1" xmlns="http://www.w3.org/2000/svg" viewBox="0 0 73.5294284283923 60.70402701979958" width="73.5294284283923" height="60.70402701979958">
  <!-- svg-source:excalidraw -->
  
  <defs>
    <style class="style-fonts">
      @font-face {
        font-family: "Virgil";
        src: url("https://excalidraw.com/Virgil.woff2");
      }
      @font-face {
        font-family: "Cascadia";
        src: url("https://excalidraw.com/Cascadia.woff2");
      }
    </style>
    
  </defs>
  <rect x="0" y="0" width="73.5294284283923" height="60.70402701979958" fill="transparent"></rect><g stroke-linecap="round"><g transform="translate(23.491418122447328 19.522562320855513) rotate(316.47273244472166 -0.09109478656773717 17.952359505472884)"><path d="M0.08 1.1 C-0.22 6.89, -0.82 28.44, -1.02 34.3 M-1.34 0.63 C-1.34 6.57, 0.74 29.64, 1.16 35.27" stroke="#1e1e1e" stroke-width="1" fill="none"></path></g></g><mask></mask><g stroke-linecap="round"><g transform="translate(8.991726810279204 18.442426334718448) rotate(316.47273244472166 9.041611979109064 -0.04922043275848864)"><path d="M-1.02 -1.08 C1.8 -1.11, 13.96 0.67, 16.98 0.92 M0.65 0.97 C3.81 1.13, 15.96 -0.28, 19.1 -0.72" stroke="#1e1e1e" stroke-width="1" fill="none"></path></g></g><mask></mask><g stroke-linecap="round"><g transform="translate(32.3582230375377 31.00184218353911) rotate(316.47273244472166 0.22589123848959503 -11.287017298006504)"><path d="M-1.12 0.92 C-1.06 -2.5, -0.88 -17.61, -0.64 -21.58 M0.49 0.35 C1 -3.34, 1.71 -19.75, 1.55 -23.49" stroke="#1e1e1e" stroke-width="1" fill="none"></path></g></g><mask></mask><g stroke-linecap="round"><g transform="translate(67.88335029825515 37.12355556312673) rotate(316.47273244472166 -18.32488428247177 -0.08295719096884113)"><path d="M-0.99 0.4 C-6.87 0.15, -30.46 -0.76, -36.37 -0.59 M0.69 -0.43 C-5.25 -0.64, -31.01 0.44, -37.34 0.45" stroke="#1e1e1e" stroke-width="1" fill="none"></path></g></g><mask></mask><g stroke-linecap="round"><g transform="translate(54.52991981374004 20.859607154815194) rotate(316.47273244472166 -12.008242487086505 0.11304622930947517)"><path d="M-0.04 -0.95 C-3.7 -0.86, -19.2 0.79, -22.95 0.94 M-1.53 1.17 C-5.27 0.91, -20.37 -0.65, -23.97 -0.63" stroke="#1e1e1e" stroke-width="1" fill="none"></path></g></g><mask></mask><g stroke-linecap="round"><g transform="translate(57.273395382246406 11.165460636037778) rotate(316.47273244472166 -0.827661200338099 9.426573189761484)"><path d="M-0.14 1.05 C-0.13 4, 0.05 14.18, 0.03 16.73 M-1.68 0.56 C-1.8 3.8, -0.89 15.47, -0.77 18.29" stroke="#1e1e1e" stroke-width="1" fill="none"></path></g></g><mask></mask></svg>